<?xml version="1.0" encoding="UTF-8" standalone="no" ?>
<!DOCTYPE svg PUBLIC "-//W3C//DTD SVG 1.1//EN" "http://www.w3.org/Graphics/SVG/1.1/DTD/svg11.dtd">
<svg xmlns="http://www.w3.org/2000/svg" xmlns:xlink="http://www.w3.org/1999/xlink" version="1.1" width="81" height="353" viewBox="0 0 81 353" xml:space="preserve">
<desc>Created with Fabric.js 3.6.3</desc>
<defs>
</defs>
<g transform="matrix(0 -0.62 0.62 0 40.66 181.13)"  >
<path style="stroke: rgb(0,0,0); stroke-width: 0.98; stroke-dasharray: none; stroke-linecap: butt; stroke-dashoffset: 0; stroke-linejoin: miter; stroke-miterlimit: 4; fill: rgb(0,0,0); fill-rule: nonzero; opacity: 1;"  transform=" translate(-332.84, -208.8)" d="m 141.70484 143.70203 l 313.9848 0 l 12.99881 16.17096 l 23.53654 0 l 12.90791 -16.17096 l 105.28758 0 l 0 130.19545 l -100.79486 0 l -11.91159 -13.68229 l -22.97589 0 l -11.25634 13.68229 l -320.39697 0 l -87.825466 -65.09773 z" stroke-linecap="round" />
</g>
<g transform="matrix(0 -0.62 0.62 0 40.31 119.36)"  >
<path style="stroke: rgb(252,255,254); stroke-opacity: 0.98; stroke-width: 1; stroke-dasharray: none; stroke-linecap: butt; stroke-dashoffset: 0; stroke-linejoin: miter; stroke-miterlimit: 4; fill: none; fill-rule: nonzero; opacity: 1;"  transform=" translate(-431.74, -208.21)" d="m 431.89032 157.03042 l -0.30265 102.36201" stroke-linecap="round" />
</g>
<g transform="matrix(0 -1 1 0 39.68 230.42)" style=""  >
		<text xml:space="preserve" font-family="'Open Sans', sans-serif" font-size="18" font-style="normal" font-weight="normal" style="stroke: none; stroke-width: 1; stroke-dasharray: none; stroke-linecap: butt; stroke-dashoffset: 0; stroke-linejoin: miter; stroke-miterlimit: 4; fill: rgb(255,255,255); fill-rule: nonzero; opacity: 1; white-space: pre;" ><tspan x="-86.58" y="-5.8" style="font-size: 17px; ">Capacitive Soil</tspan><tspan x="-86.58" y="16.48" style="font-size: 17px; ">Moisture Sensor V1.2</tspan></text>
</g>
<g transform="matrix(0 1.76 -1.76 0 62.11 60.32)"  >
<g style=""   >
		<g transform="matrix(-0.67 0 0 -1.26 -3.56 -0.01)"  >
<rect style="stroke: rgb(236,236,236); stroke-width: 0; stroke-dasharray: none; stroke-linecap: round; stroke-dashoffset: 0.15000001; stroke-linejoin: round; stroke-miterlimit: 4; fill: rgb(236,236,236); fill-rule: nonzero; opacity: 1;"  x="-0.715" y="-1.16" rx="0" ry="0" width="1.43" height="2.32" />
</g>
		<g transform="matrix(-0.67 0 0 -1.26 -2.59 0)"  >
<rect style="stroke: rgb(204,204,204); stroke-width: 0; stroke-dasharray: none; stroke-linecap: round; stroke-dashoffset: 0.15000001; stroke-linejoin: round; stroke-miterlimit: 4; fill: rgb(230,230,230); fill-rule: nonzero; opacity: 1;"  x="-0.715" y="-1.125" rx="0" ry="0" width="1.43" height="2.25" />
</g>
		<g transform="matrix(0.62 0 0 0.62 0.02 0)"  >
<rect style="stroke: rgb(136,170,0); stroke-width: 0; stroke-dasharray: none; stroke-linecap: round; stroke-dashoffset: 0.15000001; stroke-linejoin: round; stroke-miterlimit: 4; fill: rgb(51,51,51); fill-rule: nonzero; opacity: 1;"  x="-3.325" y="-2.395" rx="0" ry="0" width="6.65" height="4.79" />
</g>
		<g transform="matrix(-0.67 0 0 -1.26 2.58 -0.01)"  >
<rect style="stroke: rgb(236,236,236); stroke-width: 0; stroke-dasharray: none; stroke-linecap: round; stroke-dashoffset: 0.15000001; stroke-linejoin: round; stroke-miterlimit: 4; fill: rgb(236,236,236); fill-rule: nonzero; opacity: 1;"  x="-0.715" y="-1.16" rx="0" ry="0" width="1.43" height="2.32" />
</g>
		<g transform="matrix(-0.67 0 0 -1.26 3.55 0)"  >
<rect style="stroke: rgb(204,204,204); stroke-width: 0; stroke-dasharray: none; stroke-linecap: round; stroke-dashoffset: 0.15000001; stroke-linejoin: round; stroke-miterlimit: 4; fill: rgb(230,230,230); fill-rule: nonzero; opacity: 1;"  x="-0.715" y="-1.125" rx="0" ry="0" width="1.43" height="2.25" />
</g>
</g>
</g>
<g transform="matrix(0 1.99 -1.99 0 13.82 58.07)"  >
<g style=""   >
		<g transform="matrix(0 -0.73 0.59 0 2.1 -3.06)"  >
<rect style="stroke: rgb(236,236,236); stroke-width: 0; stroke-dasharray: none; stroke-linecap: round; stroke-dashoffset: 0.15000001; stroke-linejoin: round; stroke-miterlimit: 4; fill: rgb(236,236,236); fill-rule: nonzero; opacity: 1;"  x="-0.715" y="-1.16" rx="0" ry="0" width="1.43" height="2.32" />
</g>
		<g transform="matrix(0 -0.73 0.59 0 2.09 -1.99)"  >
<rect style="stroke: rgb(204,204,204); stroke-width: 0; stroke-dasharray: none; stroke-linecap: round; stroke-dashoffset: 0.15000001; stroke-linejoin: round; stroke-miterlimit: 4; fill: rgb(230,230,230); fill-rule: nonzero; opacity: 1;"  x="-0.715" y="-1.125" rx="0" ry="0" width="1.43" height="2.25" />
</g>
		<g transform="matrix(0 0.62 -0.62 0 0 0.03)"  >
<rect style="stroke: rgb(136,170,0); stroke-width: 0; stroke-dasharray: none; stroke-linecap: round; stroke-dashoffset: 0.15000001; stroke-linejoin: round; stroke-miterlimit: 4; fill: rgb(51,51,51); fill-rule: nonzero; opacity: 1;"  x="-2.425" y="-4.7" rx="0" ry="0" width="4.85" height="9.4" />
</g>
		<g transform="matrix(0 -0.73 0.59 0 -2.05 -3.06)"  >
<rect style="stroke: rgb(236,236,236); stroke-width: 0; stroke-dasharray: none; stroke-linecap: round; stroke-dashoffset: 0.15000001; stroke-linejoin: round; stroke-miterlimit: 4; fill: rgb(236,236,236); fill-rule: nonzero; opacity: 1;"  x="-0.715" y="-1.16" rx="0" ry="0" width="1.43" height="2.32" />
</g>
		<g transform="matrix(0 -0.73 0.59 0 -2.06 -1.99)"  >
<rect style="stroke: rgb(204,204,204); stroke-width: 0; stroke-dasharray: none; stroke-linecap: round; stroke-dashoffset: 0.15000001; stroke-linejoin: round; stroke-miterlimit: 4; fill: rgb(230,230,230); fill-rule: nonzero; opacity: 1;"  x="-0.715" y="-1.125" rx="0" ry="0" width="1.43" height="2.25" />
</g>
		<g transform="matrix(0 -0.73 0.59 0 0.01 2.01)"  >
<rect style="stroke: rgb(236,236,236); stroke-width: 0; stroke-dasharray: none; stroke-linecap: round; stroke-dashoffset: 0.15000001; stroke-linejoin: round; stroke-miterlimit: 4; fill: rgb(236,236,236); fill-rule: nonzero; opacity: 1;"  x="-0.715" y="-1.16" rx="0" ry="0" width="1.43" height="2.32" />
</g>
		<g transform="matrix(0 -0.73 0.59 0 0 3.07)"  >
<rect style="stroke: rgb(204,204,204); stroke-width: 0; stroke-dasharray: none; stroke-linecap: round; stroke-dashoffset: 0.15000001; stroke-linejoin: round; stroke-miterlimit: 4; fill: rgb(230,230,230); fill-rule: nonzero; opacity: 1;"  x="-0.715" y="-1.125" rx="0" ry="0" width="1.43" height="2.25" />
</g>
</g>
</g>
<g transform="matrix(0 1.12 -1.12 0 39.92 58.1)"  >
<g style=""   >
		<g transform="matrix(-0.62 0 0 -0.62 0 0.06)"  >
<path style="stroke: rgb(55,171,200); stroke-width: 0; stroke-dasharray: none; stroke-linecap: round; stroke-dashoffset: 0.15000001; stroke-linejoin: round; stroke-miterlimit: 4; fill: rgb(77,77,77); fill-rule: nonzero; opacity: 1;"  transform=" translate(-510.66, -213.04)" d="m 494.17836 223.37749 l 32.95978 0 l 0 -20.66666 l -32.95978 0 l 0 6.84583 c 0.0497 -0.00025 0.11205 -0.004 0.16228 0 c 1.34735 0.0955 2.33779 1.53419 2.27309 3.22917 l 0 0.0645 c -0.0736 1.64099 -1.14555 2.89999 -2.43546 2.90625 l 0 7.62083 z" stroke-linecap="round" />
</g>
		<g transform="matrix(0 1.28 -1.08 0 7.2 -7.43)"  >
<rect style="stroke: rgb(236,236,236); stroke-width: 0; stroke-dasharray: none; stroke-linecap: round; stroke-dashoffset: 0.15000001; stroke-linejoin: round; stroke-miterlimit: 4; fill: rgb(236,236,236); fill-rule: nonzero; opacity: 1;"  x="-0.715" y="-1.16" rx="0" ry="0" width="1.43" height="2.32" />
</g>
		<g transform="matrix(0 1.28 -1.08 0 7.21 -9.29)"  >
<rect style="stroke: rgb(204,204,204); stroke-width: 0; stroke-dasharray: none; stroke-linecap: round; stroke-dashoffset: 0.15000001; stroke-linejoin: round; stroke-miterlimit: 4; fill: rgb(230,230,230); fill-rule: nonzero; opacity: 1;"  x="-0.715" y="-1.125" rx="0" ry="0" width="1.43" height="2.25" />
</g>
		<g transform="matrix(0 1.28 -1.08 0 2.54 -7.43)"  >
<rect style="stroke: rgb(236,236,236); stroke-width: 0; stroke-dasharray: none; stroke-linecap: round; stroke-dashoffset: 0.15000001; stroke-linejoin: round; stroke-miterlimit: 4; fill: rgb(236,236,236); fill-rule: nonzero; opacity: 1;"  x="-0.715" y="-1.16" rx="0" ry="0" width="1.43" height="2.32" />
</g>
		<g transform="matrix(0 1.28 -1.08 0 2.56 -9.29)"  >
<rect style="stroke: rgb(204,204,204); stroke-width: 0; stroke-dasharray: none; stroke-linecap: round; stroke-dashoffset: 0.15000001; stroke-linejoin: round; stroke-miterlimit: 4; fill: rgb(230,230,230); fill-rule: nonzero; opacity: 1;"  x="-0.715" y="-1.125" rx="0" ry="0" width="1.43" height="2.25" />
</g>
		<g transform="matrix(0 1.28 -1.08 0 -2.26 -7.43)"  >
<rect style="stroke: rgb(236,236,236); stroke-width: 0; stroke-dasharray: none; stroke-linecap: round; stroke-dashoffset: 0.15000001; stroke-linejoin: round; stroke-miterlimit: 4; fill: rgb(236,236,236); fill-rule: nonzero; opacity: 1;"  x="-0.715" y="-1.16" rx="0" ry="0" width="1.43" height="2.32" />
</g>
		<g transform="matrix(0 1.28 -1.08 0 -2.25 -9.29)"  >
<rect style="stroke: rgb(204,204,204); stroke-width: 0; stroke-dasharray: none; stroke-linecap: round; stroke-dashoffset: 0.15000001; stroke-linejoin: round; stroke-miterlimit: 4; fill: rgb(230,230,230); fill-rule: nonzero; opacity: 1;"  x="-0.715" y="-1.125" rx="0" ry="0" width="1.43" height="2.25" />
</g>
		<g transform="matrix(0 1.28 -1.08 0 -7.01 -7.53)"  >
<rect style="stroke: rgb(236,236,236); stroke-width: 0; stroke-dasharray: none; stroke-linecap: round; stroke-dashoffset: 0.15000001; stroke-linejoin: round; stroke-miterlimit: 4; fill: rgb(236,236,236); fill-rule: nonzero; opacity: 1;"  x="-0.715" y="-1.16" rx="0" ry="0" width="1.43" height="2.32" />
</g>
		<g transform="matrix(0 1.28 -1.08 0 -7 -9.39)"  >
<rect style="stroke: rgb(204,204,204); stroke-width: 0; stroke-dasharray: none; stroke-linecap: round; stroke-dashoffset: 0.15000001; stroke-linejoin: round; stroke-miterlimit: 4; fill: rgb(230,230,230); fill-rule: nonzero; opacity: 1;"  x="-0.715" y="-1.125" rx="0" ry="0" width="1.43" height="2.25" />
</g>
		<g transform="matrix(0 -1.28 1.08 0 -6.91 7.48)"  >
<rect style="stroke: rgb(236,236,236); stroke-width: 0; stroke-dasharray: none; stroke-linecap: round; stroke-dashoffset: 0.15000001; stroke-linejoin: round; stroke-miterlimit: 4; fill: rgb(236,236,236); fill-rule: nonzero; opacity: 1;"  x="-0.715" y="-1.16" rx="0" ry="0" width="1.43" height="2.32" />
</g>
		<g transform="matrix(0 -1.28 1.08 0 -6.93 9.33)"  >
<rect style="stroke: rgb(204,204,204); stroke-width: 0; stroke-dasharray: none; stroke-linecap: round; stroke-dashoffset: 0.15000001; stroke-linejoin: round; stroke-miterlimit: 4; fill: rgb(230,230,230); fill-rule: nonzero; opacity: 1;"  x="-0.715" y="-1.125" rx="0" ry="0" width="1.43" height="2.25" />
</g>
		<g transform="matrix(0 -1.28 1.08 0 -2.26 7.48)"  >
<rect style="stroke: rgb(236,236,236); stroke-width: 0; stroke-dasharray: none; stroke-linecap: round; stroke-dashoffset: 0.15000001; stroke-linejoin: round; stroke-miterlimit: 4; fill: rgb(236,236,236); fill-rule: nonzero; opacity: 1;"  x="-0.715" y="-1.16" rx="0" ry="0" width="1.43" height="2.32" />
</g>
		<g transform="matrix(0 -1.28 1.08 0 -2.27 9.34)"  >
<rect style="stroke: rgb(204,204,204); stroke-width: 0; stroke-dasharray: none; stroke-linecap: round; stroke-dashoffset: 0.15000001; stroke-linejoin: round; stroke-miterlimit: 4; fill: rgb(230,230,230); fill-rule: nonzero; opacity: 1;"  x="-0.715" y="-1.125" rx="0" ry="0" width="1.43" height="2.25" />
</g>
		<g transform="matrix(0 -1.28 1.08 0 2.59 7.54)"  >
<rect style="stroke: rgb(236,236,236); stroke-width: 0; stroke-dasharray: none; stroke-linecap: round; stroke-dashoffset: 0.15000001; stroke-linejoin: round; stroke-miterlimit: 4; fill: rgb(236,236,236); fill-rule: nonzero; opacity: 1;"  x="-0.715" y="-1.16" rx="0" ry="0" width="1.43" height="2.32" />
</g>
		<g transform="matrix(0 -1.28 1.08 0 2.58 9.4)"  >
<rect style="stroke: rgb(204,204,204); stroke-width: 0; stroke-dasharray: none; stroke-linecap: round; stroke-dashoffset: 0.15000001; stroke-linejoin: round; stroke-miterlimit: 4; fill: rgb(230,230,230); fill-rule: nonzero; opacity: 1;"  x="-0.715" y="-1.125" rx="0" ry="0" width="1.43" height="2.25" />
</g>
		<g transform="matrix(0 -1.28 1.08 0 7.21 7.54)"  >
<rect style="stroke: rgb(236,236,236); stroke-width: 0; stroke-dasharray: none; stroke-linecap: round; stroke-dashoffset: 0.15000001; stroke-linejoin: round; stroke-miterlimit: 4; fill: rgb(236,236,236); fill-rule: nonzero; opacity: 1;"  x="-0.715" y="-1.16" rx="0" ry="0" width="1.43" height="2.32" />
</g>
		<g transform="matrix(0 -1.28 1.08 0 7.2 9.4)"  >
<rect style="stroke: rgb(204,204,204); stroke-width: 0; stroke-dasharray: none; stroke-linecap: round; stroke-dashoffset: 0.15000001; stroke-linejoin: round; stroke-miterlimit: 4; fill: rgb(230,230,230); fill-rule: nonzero; opacity: 1;"  x="-0.715" y="-1.125" rx="0" ry="0" width="1.43" height="2.25" />
</g>
</g>
</g>
<g transform="matrix(0 -1 1 0 41.06 13.84)"  >
<g style=""   >
		<g transform="matrix(0 -0.62 0.62 0 -8.7 14.42)"  >
<rect style="stroke: rgb(255,246,213); stroke-width: 0; stroke-dasharray: none; stroke-linecap: round; stroke-dashoffset: 0; stroke-linejoin: round; stroke-miterlimit: 4; fill: rgb(255,246,213); fill-rule: nonzero; opacity: 1;"  x="-1.75" y="-4.39" rx="0" ry="0" width="3.5" height="8.78" />
</g>
		<g transform="matrix(0 -0.62 0.62 0 -8.7 -14.43)"  >
<rect style="stroke: rgb(255,246,213); stroke-width: 0; stroke-dasharray: none; stroke-linecap: round; stroke-dashoffset: 0; stroke-linejoin: round; stroke-miterlimit: 4; fill: rgb(255,246,213); fill-rule: nonzero; opacity: 1;"  x="-1.75" y="-4.39" rx="0" ry="0" width="3.5" height="8.78" />
</g>
		<g transform="matrix(0 -0.62 0.62 0 -11.05 6.72)"  >
<rect style="stroke: rgb(0,0,0); stroke-width: 0; stroke-dasharray: none; stroke-linecap: round; stroke-dashoffset: 0; stroke-linejoin: round; stroke-miterlimit: 4; fill: rgb(236,236,236); fill-rule: nonzero; opacity: 1;"  x="-1.445" y="-4.5" rx="1.4464432" ry="1.4366472" width="2.89" height="9" />
</g>
		<g transform="matrix(0 -0.62 0.62 0 2.35 6.72)"  >
<rect style="stroke: rgb(0,0,0); stroke-width: 0; stroke-dasharray: none; stroke-linecap: round; stroke-dashoffset: 0; stroke-linejoin: round; stroke-miterlimit: 4; fill: rgb(179,179,179); fill-rule: nonzero; opacity: 1;"  x="-1.445" y="-18.475" rx="0" ry="0" width="2.89" height="36.95" />
</g>
		<g transform="matrix(0 -0.62 0.62 0 13.76 7.62)"  >
<rect style="stroke: none; stroke-width: 0; stroke-dasharray: none; stroke-linecap: butt; stroke-dashoffset: 0; stroke-linejoin: miter; stroke-miterlimit: 4; fill: none; fill-rule: nonzero; opacity: 1;"  x="-0.005" y="-0.035" rx="0" ry="0" width="0.01" height="0.07" />
</g>
		<g transform="matrix(0 -0.62 0.62 0 -11.05 -0.39)"  >
<rect style="stroke: rgb(0,0,0); stroke-width: 0; stroke-dasharray: none; stroke-linecap: round; stroke-dashoffset: 0; stroke-linejoin: round; stroke-miterlimit: 4; fill: rgb(236,236,236); fill-rule: nonzero; opacity: 1;"  x="-1.445" y="-4.5" rx="1.4464432" ry="1.4366472" width="2.89" height="9" />
</g>
		<g transform="matrix(0 -0.62 0.62 0 2.35 -0.39)"  >
<rect style="stroke: rgb(0,0,0); stroke-width: 0; stroke-dasharray: none; stroke-linecap: round; stroke-dashoffset: 0; stroke-linejoin: round; stroke-miterlimit: 4; fill: rgb(179,179,179); fill-rule: nonzero; opacity: 1;"  x="-1.445" y="-18.475" rx="0" ry="0" width="2.89" height="36.95" />
</g>
		<g transform="matrix(0 -0.62 0.62 0 13.76 0.51)"  >
<rect style="stroke: none; stroke-width: 0; stroke-dasharray: none; stroke-linecap: butt; stroke-dashoffset: 0; stroke-linejoin: miter; stroke-miterlimit: 4; fill: none; fill-rule: nonzero; opacity: 1;"  x="-0.005" y="-0.035" rx="0" ry="0" width="0.01" height="0.07" />
</g>
		<g transform="matrix(0 -0.62 0.62 0 -11.05 -7.38)"  >
<rect style="stroke: rgb(0,0,0); stroke-width: 0; stroke-dasharray: none; stroke-linecap: round; stroke-dashoffset: 0; stroke-linejoin: round; stroke-miterlimit: 4; fill: rgb(236,236,236); fill-rule: nonzero; opacity: 1;"  x="-1.445" y="-4.5" rx="1.4464432" ry="1.4366472" width="2.89" height="9" />
</g>
		<g transform="matrix(0 -0.62 0.62 0 2.35 -7.38)"  >
<rect style="stroke: rgb(0,0,0); stroke-width: 0; stroke-dasharray: none; stroke-linecap: round; stroke-dashoffset: 0; stroke-linejoin: round; stroke-miterlimit: 4; fill: rgb(179,179,179); fill-rule: nonzero; opacity: 1;"  x="-1.445" y="-18.475" rx="0" ry="0" width="2.89" height="36.95" />
</g>
		<g transform="matrix(0 -0.62 0.62 0 13.76 -6.46)"  >
<rect style="stroke: none; stroke-width: 0; stroke-dasharray: none; stroke-linecap: butt; stroke-dashoffset: 0; stroke-linejoin: miter; stroke-miterlimit: 4; fill: none; fill-rule: nonzero; opacity: 1;"  x="-0.005" y="-0.035" rx="0" ry="0" width="0.01" height="0.07" />
</g>
		<g transform="matrix(0 -0.62 0.62 0 3.98 0)"  >
<rect style="stroke: rgb(0,255,255); stroke-width: 0; stroke-dasharray: none; stroke-linecap: round; stroke-dashoffset: 0; stroke-linejoin: round; stroke-miterlimit: 4; fill: rgb(255,246,213); fill-rule: nonzero; opacity: 1;"  x="-25.14" y="-15.89" rx="0" ry="0" width="50.28" height="31.78" />
</g>
		<g transform="matrix(0 -0.62 0.62 0 3.07 -10.15)"  >
<rect style="stroke: rgb(0,255,255); stroke-width: 0; stroke-dasharray: none; stroke-linecap: round; stroke-dashoffset: 0; stroke-linejoin: round; stroke-miterlimit: 4; fill: rgb(153,153,153); fill-rule: nonzero; opacity: 1;"  x="-2.205" y="-6.655" rx="0" ry="0" width="4.41" height="13.31" />
</g>
		<g transform="matrix(0 -0.62 0.62 0 -3.61 -10.35)"  >
<rect style="stroke: rgb(255,238,170); stroke-width: 0; stroke-dasharray: none; stroke-linecap: round; stroke-dashoffset: 0; stroke-linejoin: round; stroke-miterlimit: 4; fill: rgb(255,238,170); fill-rule: nonzero; opacity: 0.77;"  x="-2.56" y="-4.08" rx="0" ry="0" width="5.12" height="8.16" />
</g>
		<g transform="matrix(0.62 0 0 0.62 2.45 -11.22)"  >
<path style="stroke: rgb(0,0,0); stroke-width: 0; stroke-dasharray: none; stroke-linecap: round; stroke-dashoffset: 0; stroke-linejoin: round; stroke-miterlimit: 4; fill: rgb(179,179,179); fill-rule: nonzero; opacity: 1;"  transform=" translate(-592.68, -215.37)" d="m 585.00715 216.53048 l 2.00681 0 l 0 -1.591 l 13.34849 0 l 0 -0.72732 l -15.3553 0 l 0 2.31832 z" stroke-linecap="round" />
</g>
		<g transform="matrix(0 0.62 0.62 0 3.05 10)"  >
<rect style="stroke: rgb(0,255,255); stroke-width: 0; stroke-dasharray: none; stroke-linecap: round; stroke-dashoffset: 0; stroke-linejoin: round; stroke-miterlimit: 4; fill: rgb(153,153,153); fill-rule: nonzero; opacity: 1;"  x="-2.205" y="-6.655" rx="0" ry="0" width="4.41" height="13.31" />
</g>
		<g transform="matrix(0 0.62 0.62 0 -3.63 10.19)"  >
<rect style="stroke: rgb(255,238,170); stroke-width: 0; stroke-dasharray: none; stroke-linecap: round; stroke-dashoffset: 0; stroke-linejoin: round; stroke-miterlimit: 4; fill: rgb(255,238,170); fill-rule: nonzero; opacity: 0.77;"  x="-2.56" y="-4.08" rx="0" ry="0" width="5.12" height="8.16" />
</g>
		<g transform="matrix(0.62 0 0 0.62 2.43 11.06)"  >
<path style="stroke: rgb(0,0,0); stroke-width: 0; stroke-dasharray: none; stroke-linecap: round; stroke-dashoffset: 0; stroke-linejoin: round; stroke-miterlimit: 4; fill: rgb(179,179,179); fill-rule: nonzero; opacity: 1;"  transform=" translate(-592.64, -251.23)" d="m 584.96459 250.07578 l 2.0068 0 l 0 1.591 l 13.3485 0 l 0 0.72732 l -15.3553 0 l 0 -2.31832 z" stroke-linecap="round" />
</g>
</g>
</g>
<g transform="matrix(0 1.98 -1.98 0 18.35 34.22)"  >
<g style=""   >
		<g transform="matrix(-0.62 0 0 -0.62 2.57 0)"  >
<rect style="stroke: none; stroke-width: 1; stroke-dasharray: none; stroke-linecap: butt; stroke-dashoffset: 0; stroke-linejoin: miter; stroke-miterlimit: 4; fill: rgb(204,204,204); fill-rule: nonzero; opacity: 1;"  x="-0.78" y="-2.175" rx="0" ry="0" width="1.56" height="4.35" />
</g>
		<g transform="matrix(-0.62 0 0 -0.62 -0.04 0)"  >
<rect style="stroke: none; stroke-width: 1; stroke-dasharray: none; stroke-linecap: butt; stroke-dashoffset: 0; stroke-linejoin: miter; stroke-miterlimit: 4; fill: rgb(116,77,46); fill-rule: nonzero; opacity: 1;"  x="-3.425" y="-2.07" rx="0" ry="0" width="6.85" height="4.14" />
</g>
		<g transform="matrix(-0.62 0 0 -0.62 -2.56 0)"  >
<rect style="stroke: none; stroke-width: 1; stroke-dasharray: none; stroke-linecap: butt; stroke-dashoffset: 0; stroke-linejoin: miter; stroke-miterlimit: 4; fill: rgb(204,204,204); fill-rule: nonzero; opacity: 1;"  x="-0.78" y="-2.175" rx="0" ry="0" width="1.56" height="4.35" />
</g>
</g>
</g>
<g transform="matrix(0 -1 1 0 40.51 37.1)"  >
<g style=""   >
		<g transform="matrix(0.89 0 0 0.89 0 7)" style=""  >
		<text xml:space="preserve" font-family="'Open Sans', sans-serif" font-size="5" font-style="normal" font-weight="normal" style="stroke: none; stroke-width: 1; stroke-dasharray: none; stroke-linecap: butt; stroke-dashoffset: 0; stroke-linejoin: miter; stroke-miterlimit: 4; fill: rgb(0,0,0); fill-rule: nonzero; opacity: 1; white-space: pre;" ><tspan x="-9.41" y="2.2" style="font-size: 7px; fill: rgb(255,255,255); ">AOUT</tspan></text>
</g>
		<g transform="matrix(0.89 0 0 0.89 0 0)" style=""  >
		<text xml:space="preserve" font-family="'Open Sans', sans-serif" font-size="5" font-style="normal" font-weight="normal" style="stroke: none; stroke-width: 1; stroke-dasharray: none; stroke-linecap: butt; stroke-dashoffset: 0; stroke-linejoin: miter; stroke-miterlimit: 4; fill: rgb(0,0,0); fill-rule: nonzero; opacity: 1; white-space: pre;" ><tspan x="-7.17" y="2.2" style="font-size: 7px; fill: rgb(255,255,255); ">VDD</tspan></text>
</g>
		<g transform="matrix(0.89 0 0 0.89 0 -7)" style=""  >
		<text xml:space="preserve" font-family="'Open Sans', sans-serif" font-size="5" font-style="normal" font-weight="normal" style="stroke: none; stroke-width: 1; stroke-dasharray: none; stroke-linecap: butt; stroke-dashoffset: 0; stroke-linejoin: miter; stroke-miterlimit: 4; fill: rgb(0,0,0); fill-rule: nonzero; opacity: 1; white-space: pre;" ><tspan x="-7.72" y="2.2" style="font-size: 7px; fill: rgb(255,255,255); ">GND</tspan></text>
</g>
</g>
</g>
<g transform="matrix(0 1.76 -1.76 0 62.11 38.48)"  >
<g style=""   >
		<g transform="matrix(-0.67 0 0 -1.26 -3.56 -0.01)"  >
<rect style="stroke: rgb(236,236,236); stroke-width: 0; stroke-dasharray: none; stroke-linecap: round; stroke-dashoffset: 0.15000001; stroke-linejoin: round; stroke-miterlimit: 4; fill: rgb(236,236,236); fill-rule: nonzero; opacity: 1;"  x="-0.715" y="-1.16" rx="0" ry="0" width="1.43" height="2.32" />
</g>
		<g transform="matrix(-0.67 0 0 -1.26 -2.59 0)"  >
<rect style="stroke: rgb(204,204,204); stroke-width: 0; stroke-dasharray: none; stroke-linecap: round; stroke-dashoffset: 0.15000001; stroke-linejoin: round; stroke-miterlimit: 4; fill: rgb(230,230,230); fill-rule: nonzero; opacity: 1;"  x="-0.715" y="-1.125" rx="0" ry="0" width="1.43" height="2.25" />
</g>
		<g transform="matrix(0.62 0 0 0.62 0.02 0)"  >
<rect style="stroke: rgb(136,170,0); stroke-width: 0; stroke-dasharray: none; stroke-linecap: round; stroke-dashoffset: 0.15000001; stroke-linejoin: round; stroke-miterlimit: 4; fill: rgb(51,51,51); fill-rule: nonzero; opacity: 1;"  x="-3.325" y="-2.395" rx="0" ry="0" width="6.65" height="4.79" />
</g>
		<g transform="matrix(-0.67 0 0 -1.26 2.58 -0.01)"  >
<rect style="stroke: rgb(236,236,236); stroke-width: 0; stroke-dasharray: none; stroke-linecap: round; stroke-dashoffset: 0.15000001; stroke-linejoin: round; stroke-miterlimit: 4; fill: rgb(236,236,236); fill-rule: nonzero; opacity: 1;"  x="-0.715" y="-1.16" rx="0" ry="0" width="1.43" height="2.32" />
</g>
		<g transform="matrix(-0.67 0 0 -1.26 3.55 0)"  >
<rect style="stroke: rgb(204,204,204); stroke-width: 0; stroke-dasharray: none; stroke-linecap: round; stroke-dashoffset: 0.15000001; stroke-linejoin: round; stroke-miterlimit: 4; fill: rgb(230,230,230); fill-rule: nonzero; opacity: 1;"  x="-0.715" y="-1.125" rx="0" ry="0" width="1.43" height="2.25" />
</g>
</g>
</g>
<g transform="matrix(0 1.76 -1.76 0 71.11 38.48)"  >
<g style=""   >
		<g transform="matrix(-0.67 0 0 -1.26 -3.56 -0.01)"  >
<rect style="stroke: rgb(236,236,236); stroke-width: 0; stroke-dasharray: none; stroke-linecap: round; stroke-dashoffset: 0.15000001; stroke-linejoin: round; stroke-miterlimit: 4; fill: rgb(236,236,236); fill-rule: nonzero; opacity: 1;"  x="-0.715" y="-1.16" rx="0" ry="0" width="1.43" height="2.32" />
</g>
		<g transform="matrix(-0.67 0 0 -1.26 -2.59 0)"  >
<rect style="stroke: rgb(204,204,204); stroke-width: 0; stroke-dasharray: none; stroke-linecap: round; stroke-dashoffset: 0.15000001; stroke-linejoin: round; stroke-miterlimit: 4; fill: rgb(230,230,230); fill-rule: nonzero; opacity: 1;"  x="-0.715" y="-1.125" rx="0" ry="0" width="1.43" height="2.25" />
</g>
		<g transform="matrix(0.62 0 0 0.62 0.02 0)"  >
<rect style="stroke: rgb(136,170,0); stroke-width: 0; stroke-dasharray: none; stroke-linecap: round; stroke-dashoffset: 0.15000001; stroke-linejoin: round; stroke-miterlimit: 4; fill: rgb(51,51,51); fill-rule: nonzero; opacity: 1;"  x="-3.325" y="-2.395" rx="0" ry="0" width="6.65" height="4.79" />
</g>
		<g transform="matrix(-0.67 0 0 -1.26 2.58 -0.01)"  >
<rect style="stroke: rgb(236,236,236); stroke-width: 0; stroke-dasharray: none; stroke-linecap: round; stroke-dashoffset: 0.15000001; stroke-linejoin: round; stroke-miterlimit: 4; fill: rgb(236,236,236); fill-rule: nonzero; opacity: 1;"  x="-0.715" y="-1.16" rx="0" ry="0" width="1.43" height="2.32" />
</g>
		<g transform="matrix(-0.67 0 0 -1.26 3.55 0)"  >
<rect style="stroke: rgb(204,204,204); stroke-width: 0; stroke-dasharray: none; stroke-linecap: round; stroke-dashoffset: 0.15000001; stroke-linejoin: round; stroke-miterlimit: 4; fill: rgb(230,230,230); fill-rule: nonzero; opacity: 1;"  x="-0.715" y="-1.125" rx="0" ry="0" width="1.43" height="2.25" />
</g>
</g>
</g>
<g transform="matrix(0 1.98 -1.98 0 26.35 82.22)"  >
<g style=""   >
		<g transform="matrix(-0.62 0 0 -0.62 2.57 0)"  >
<rect style="stroke: none; stroke-width: 1; stroke-dasharray: none; stroke-linecap: butt; stroke-dashoffset: 0; stroke-linejoin: miter; stroke-miterlimit: 4; fill: rgb(204,204,204); fill-rule: nonzero; opacity: 1;"  x="-0.78" y="-2.175" rx="0" ry="0" width="1.56" height="4.35" />
</g>
		<g transform="matrix(-0.62 0 0 -0.62 -0.04 0)"  >
<rect style="stroke: none; stroke-width: 1; stroke-dasharray: none; stroke-linecap: butt; stroke-dashoffset: 0; stroke-linejoin: miter; stroke-miterlimit: 4; fill: rgb(116,77,46); fill-rule: nonzero; opacity: 1;"  x="-3.425" y="-2.07" rx="0" ry="0" width="6.85" height="4.14" />
</g>
		<g transform="matrix(-0.62 0 0 -0.62 -2.56 0)"  >
<rect style="stroke: none; stroke-width: 1; stroke-dasharray: none; stroke-linecap: butt; stroke-dashoffset: 0; stroke-linejoin: miter; stroke-miterlimit: 4; fill: rgb(204,204,204); fill-rule: nonzero; opacity: 1;"  x="-0.78" y="-2.175" rx="0" ry="0" width="1.56" height="4.35" />
</g>
</g>
</g>
<g transform="matrix(0 2.35 -2.35 0 8.74 34.32)"  >
<g style=""   >
		<g transform="matrix(-0.62 0 0 -0.62 2.57 0)"  >
<rect style="stroke: none; stroke-width: 1; stroke-dasharray: none; stroke-linecap: butt; stroke-dashoffset: 0; stroke-linejoin: miter; stroke-miterlimit: 4; fill: rgb(204,204,204); fill-rule: nonzero; opacity: 1;"  x="-0.78" y="-2.175" rx="0" ry="0" width="1.56" height="4.35" />
</g>
		<g transform="matrix(-0.62 0 0 -0.62 -0.04 0)"  >
<rect style="stroke: none; stroke-width: 1; stroke-dasharray: none; stroke-linecap: butt; stroke-dashoffset: 0; stroke-linejoin: miter; stroke-miterlimit: 4; fill: rgb(116,77,46); fill-rule: nonzero; opacity: 1;"  x="-3.425" y="-2.07" rx="0" ry="0" width="6.85" height="4.14" />
</g>
		<g transform="matrix(-0.62 0 0 -0.62 -2.56 0)"  >
<rect style="stroke: none; stroke-width: 1; stroke-dasharray: none; stroke-linecap: butt; stroke-dashoffset: 0; stroke-linejoin: miter; stroke-miterlimit: 4; fill: rgb(204,204,204); fill-rule: nonzero; opacity: 1;"  x="-0.78" y="-2.175" rx="0" ry="0" width="1.56" height="4.35" />
</g>
</g>
</g>
<g transform="matrix(0 1.98 -1.98 0 17.35 82.22)"  >
<g style=""   >
		<g transform="matrix(-0.62 0 0 -0.62 2.57 0)"  >
<rect style="stroke: none; stroke-width: 1; stroke-dasharray: none; stroke-linecap: butt; stroke-dashoffset: 0; stroke-linejoin: miter; stroke-miterlimit: 4; fill: rgb(204,204,204); fill-rule: nonzero; opacity: 1;"  x="-0.78" y="-2.175" rx="0" ry="0" width="1.56" height="4.35" />
</g>
		<g transform="matrix(-0.62 0 0 -0.62 -0.04 0)"  >
<rect style="stroke: none; stroke-width: 1; stroke-dasharray: none; stroke-linecap: butt; stroke-dashoffset: 0; stroke-linejoin: miter; stroke-miterlimit: 4; fill: rgb(116,77,46); fill-rule: nonzero; opacity: 1;"  x="-3.425" y="-2.07" rx="0" ry="0" width="6.85" height="4.14" />
</g>
		<g transform="matrix(-0.62 0 0 -0.62 -2.56 0)"  >
<rect style="stroke: none; stroke-width: 1; stroke-dasharray: none; stroke-linecap: butt; stroke-dashoffset: 0; stroke-linejoin: miter; stroke-miterlimit: 4; fill: rgb(204,204,204); fill-rule: nonzero; opacity: 1;"  x="-0.78" y="-2.175" rx="0" ry="0" width="1.56" height="4.35" />
</g>
</g>
</g>
<g transform="matrix(0 1.98 -1.98 0 62.01 81.22)"  >
<g style=""   >
		<g transform="matrix(-0.62 0 0 -0.62 2.57 0)"  >
<rect style="stroke: none; stroke-width: 1; stroke-dasharray: none; stroke-linecap: butt; stroke-dashoffset: 0; stroke-linejoin: miter; stroke-miterlimit: 4; fill: rgb(204,204,204); fill-rule: nonzero; opacity: 1;"  x="-0.78" y="-2.175" rx="0" ry="0" width="1.56" height="4.35" />
</g>
		<g transform="matrix(-0.62 0 0 -0.62 -0.04 0)"  >
<rect style="stroke: none; stroke-width: 1; stroke-dasharray: none; stroke-linecap: butt; stroke-dashoffset: 0; stroke-linejoin: miter; stroke-miterlimit: 4; fill: rgb(116,77,46); fill-rule: nonzero; opacity: 1;"  x="-3.425" y="-2.07" rx="0" ry="0" width="6.85" height="4.14" />
</g>
		<g transform="matrix(-0.62 0 0 -0.62 -2.56 0)"  >
<rect style="stroke: none; stroke-width: 1; stroke-dasharray: none; stroke-linecap: butt; stroke-dashoffset: 0; stroke-linejoin: miter; stroke-miterlimit: 4; fill: rgb(204,204,204); fill-rule: nonzero; opacity: 1;"  x="-0.78" y="-2.175" rx="0" ry="0" width="1.56" height="4.35" />
</g>
</g>
</g>
<g transform="matrix(0 1.98 -1.98 0 71.01 60.22)"  >
<g style=""   >
		<g transform="matrix(-0.62 0 0 -0.62 2.57 0)"  >
<rect style="stroke: none; stroke-width: 1; stroke-dasharray: none; stroke-linecap: butt; stroke-dashoffset: 0; stroke-linejoin: miter; stroke-miterlimit: 4; fill: rgb(204,204,204); fill-rule: nonzero; opacity: 1;"  x="-0.78" y="-2.175" rx="0" ry="0" width="1.56" height="4.35" />
</g>
		<g transform="matrix(-0.62 0 0 -0.62 -0.04 0)"  >
<rect style="stroke: none; stroke-width: 1; stroke-dasharray: none; stroke-linecap: butt; stroke-dashoffset: 0; stroke-linejoin: miter; stroke-miterlimit: 4; fill: rgb(116,77,46); fill-rule: nonzero; opacity: 1;"  x="-3.425" y="-2.07" rx="0" ry="0" width="6.85" height="4.14" />
</g>
		<g transform="matrix(-0.62 0 0 -0.62 -2.56 0)"  >
<rect style="stroke: none; stroke-width: 1; stroke-dasharray: none; stroke-linecap: butt; stroke-dashoffset: 0; stroke-linejoin: miter; stroke-miterlimit: 4; fill: rgb(204,204,204); fill-rule: nonzero; opacity: 1;"  x="-0.78" y="-2.175" rx="0" ry="0" width="1.56" height="4.35" />
</g>
</g>
</g>
<g transform="matrix(0 1.76 -1.76 0 38.11 81.32)"  >
<g style=""   >
		<g transform="matrix(-0.67 0 0 -1.26 -3.56 -0.01)"  >
<rect style="stroke: rgb(236,236,236); stroke-width: 0; stroke-dasharray: none; stroke-linecap: round; stroke-dashoffset: 0.15000001; stroke-linejoin: round; stroke-miterlimit: 4; fill: rgb(236,236,236); fill-rule: nonzero; opacity: 1;"  x="-0.715" y="-1.16" rx="0" ry="0" width="1.43" height="2.32" />
</g>
		<g transform="matrix(-0.67 0 0 -1.26 -2.59 0)"  >
<rect style="stroke: rgb(204,204,204); stroke-width: 0; stroke-dasharray: none; stroke-linecap: round; stroke-dashoffset: 0.15000001; stroke-linejoin: round; stroke-miterlimit: 4; fill: rgb(230,230,230); fill-rule: nonzero; opacity: 1;"  x="-0.715" y="-1.125" rx="0" ry="0" width="1.43" height="2.25" />
</g>
		<g transform="matrix(0.62 0 0 0.62 0.02 0)"  >
<rect style="stroke: rgb(136,170,0); stroke-width: 0; stroke-dasharray: none; stroke-linecap: round; stroke-dashoffset: 0.15000001; stroke-linejoin: round; stroke-miterlimit: 4; fill: rgb(51,51,51); fill-rule: nonzero; opacity: 1;"  x="-3.325" y="-2.395" rx="0" ry="0" width="6.65" height="4.79" />
</g>
		<g transform="matrix(-0.67 0 0 -1.26 2.58 -0.01)"  >
<rect style="stroke: rgb(236,236,236); stroke-width: 0; stroke-dasharray: none; stroke-linecap: round; stroke-dashoffset: 0.15000001; stroke-linejoin: round; stroke-miterlimit: 4; fill: rgb(236,236,236); fill-rule: nonzero; opacity: 1;"  x="-0.715" y="-1.16" rx="0" ry="0" width="1.43" height="2.32" />
</g>
		<g transform="matrix(-0.67 0 0 -1.26 3.55 0)"  >
<rect style="stroke: rgb(204,204,204); stroke-width: 0; stroke-dasharray: none; stroke-linecap: round; stroke-dashoffset: 0.15000001; stroke-linejoin: round; stroke-miterlimit: 4; fill: rgb(230,230,230); fill-rule: nonzero; opacity: 1;"  x="-0.715" y="-1.125" rx="0" ry="0" width="1.43" height="2.25" />
</g>
</g>
</g>
<g transform="matrix(0 -1 1 0 47.3 82.59)"  >
<g style=""   >
		<g transform="matrix(1.65 0 0 1.65 0 0)"  >
<g style=""   >
		<g transform="matrix(-0.34 0 0 -0.31 -4.86 0.02)"  >
<rect style="stroke: rgb(236,236,236); stroke-width: 0; stroke-dasharray: none; stroke-linecap: round; stroke-dashoffset: 0.15000001; stroke-linejoin: round; stroke-miterlimit: 4; fill: rgb(236,236,236); fill-rule: nonzero; opacity: 1;"  x="-1.57" y="-4.69" rx="0" ry="0" width="3.14" height="9.38" />
</g>
		<g transform="matrix(-0.34 0 0 -0.31 -3.78 0.04)"  >
<rect style="stroke: rgb(204,204,204); stroke-width: 0; stroke-dasharray: none; stroke-linecap: round; stroke-dashoffset: 0.15000001; stroke-linejoin: round; stroke-miterlimit: 4; fill: rgb(230,230,230); fill-rule: nonzero; opacity: 1;"  x="-1.57" y="-4.555" rx="0" ry="0" width="3.14" height="9.11" />
</g>
		<g transform="matrix(0.34 0 0 -0.31 4.85 -0.02)"  >
<rect style="stroke: rgb(236,236,236); stroke-width: 0; stroke-dasharray: none; stroke-linecap: round; stroke-dashoffset: 0.15000001; stroke-linejoin: round; stroke-miterlimit: 4; fill: rgb(236,236,236); fill-rule: nonzero; opacity: 1;"  x="-1.57" y="-4.69" rx="0" ry="0" width="3.14" height="9.38" />
</g>
		<g transform="matrix(0.34 0 0 -0.31 3.78 0)"  >
<rect style="stroke: rgb(204,204,204); stroke-width: 0; stroke-dasharray: none; stroke-linecap: round; stroke-dashoffset: 0.15000001; stroke-linejoin: round; stroke-miterlimit: 4; fill: rgb(230,230,230); fill-rule: nonzero; opacity: 1;"  x="-1.57" y="-4.555" rx="0" ry="0" width="3.14" height="9.11" />
</g>
		<g transform="matrix(0.62 0 0 0.62 0.01 0)"  >
<rect style="stroke: rgb(136,170,0); stroke-width: 0; stroke-dasharray: none; stroke-linecap: round; stroke-dashoffset: 0.15000001; stroke-linejoin: round; stroke-miterlimit: 4; fill: rgb(51,51,51); fill-rule: nonzero; opacity: 1;"  x="-6.15" y="-3.335" rx="0" ry="0" width="12.3" height="6.67" />
</g>
</g>
</g>
		<g transform="matrix(0.5 0 0 2.59 4.35 -0.05)"  >
<rect style="stroke: rgb(236,236,236); stroke-width: 0; stroke-dasharray: none; stroke-linecap: round; stroke-dashoffset: 0.15000001; stroke-linejoin: round; stroke-miterlimit: 4; fill: rgb(255,255,255); fill-rule: nonzero; opacity: 1;"  x="-0.715" y="-1.16" rx="0" ry="0" width="1.43" height="2.32" />
</g>
</g>
</g>
</svg>